<svg width="85" height="23" viewBox="0 0 85 23" fill="none" xmlns="http://www.w3.org/2000/svg">
<rect width="85" height="23" rx="4" fill="white"/>
<g clip-path="url(#clip0_47201_1048)">
<path fill-rule="evenodd" clip-rule="evenodd" d="M12.1333 7.76706C12.1333 5.63156 13.8645 3.90039 16 3.90039C18.1355 3.90039 19.8667 5.63156 19.8667 7.76706V10.9671C19.8667 13.1026 18.1355 14.8337 16 14.8337C13.8645 14.8337 12.1333 13.1026 12.1333 10.9671V7.76706ZM16 5.23372C14.6009 5.23372 13.4667 6.36794 13.4667 7.76706V10.9671C13.4667 12.3662 14.6009 13.5004 16 13.5004C17.3991 13.5004 18.5333 12.3662 18.5333 10.9671V7.76706C18.5333 6.36794 17.3991 5.23372 16 5.23372Z" fill="#424551"/>
<path fill-rule="evenodd" clip-rule="evenodd" d="M10.6667 9.23372C11.0349 9.23372 11.3333 9.5322 11.3333 9.90039V10.9671C11.3333 13.5444 13.4227 15.6337 16 15.6337C18.5773 15.6337 20.6667 13.5444 20.6667 10.9671V9.90039C20.6667 9.5322 20.9651 9.23372 21.3333 9.23372C21.7015 9.23372 22 9.5322 22 9.90039V10.9671C22 14.2808 19.3137 16.9671 16 16.9671C12.6863 16.9671 10 14.2808 10 10.9671V9.90039C10 9.5322 10.2985 9.23372 10.6667 9.23372Z" fill="#424551"/>
<path fill-rule="evenodd" clip-rule="evenodd" d="M16 16.1671C16.3682 16.1671 16.6667 16.4655 16.6667 16.8337V17.7671H18.1333C18.5015 17.7671 18.8 18.0655 18.8 18.4337C18.8 18.8019 18.5015 19.1004 18.1333 19.1004H13.8667C13.4985 19.1004 13.2 18.8019 13.2 18.4337C13.2 18.0655 13.4985 17.7671 13.8667 17.7671H15.3333V16.8337C15.3333 16.4655 15.6318 16.1671 16 16.1671Z" fill="#424551"/>
</g>
<path d="M30.709 13.248V17H29.358V6.969H32.319C32.9537 6.969 33.5043 7.04367 33.971 7.193C34.4423 7.33767 34.832 7.54533 35.14 7.816C35.448 8.08667 35.6767 8.41333 35.826 8.796C35.98 9.17867 36.057 9.60567 36.057 10.077C36.057 10.5437 35.9753 10.9707 35.812 11.358C35.6487 11.7453 35.4083 12.079 35.091 12.359C34.7783 12.639 34.3887 12.8583 33.922 13.017C33.4553 13.171 32.921 13.248 32.319 13.248H30.709ZM30.709 12.17H32.319C32.7063 12.17 33.047 12.1187 33.341 12.016C33.6397 11.9133 33.8893 11.771 34.09 11.589C34.2907 11.4023 34.4423 11.1807 34.545 10.924C34.6477 10.6673 34.699 10.385 34.699 10.077C34.699 9.43767 34.5007 8.93833 34.104 8.579C33.712 8.21967 33.117 8.04 32.319 8.04H30.709V12.17ZM40.2455 9.797C40.7635 9.797 41.2302 9.88333 41.6455 10.056C42.0655 10.2287 42.4202 10.4737 42.7095 10.791C43.0035 11.1083 43.2275 11.4933 43.3815 11.946C43.5402 12.394 43.6195 12.8957 43.6195 13.451C43.6195 14.011 43.5402 14.515 43.3815 14.963C43.2275 15.411 43.0035 15.7937 42.7095 16.111C42.4202 16.4283 42.0655 16.6733 41.6455 16.846C41.2302 17.014 40.7635 17.098 40.2455 17.098C39.7275 17.098 39.2585 17.014 38.8385 16.846C38.4232 16.6733 38.0685 16.4283 37.7745 16.111C37.4805 15.7937 37.2542 15.411 37.0955 14.963C36.9368 14.515 36.8575 14.011 36.8575 13.451C36.8575 12.8957 36.9368 12.394 37.0955 11.946C37.2542 11.4933 37.4805 11.1083 37.7745 10.791C38.0685 10.4737 38.4232 10.2287 38.8385 10.056C39.2585 9.88333 39.7275 9.797 40.2455 9.797ZM40.2455 16.125C40.9455 16.125 41.4682 15.8917 41.8135 15.425C42.1588 14.9537 42.3315 14.298 42.3315 13.458C42.3315 12.6133 42.1588 11.9553 41.8135 11.484C41.4682 11.0127 40.9455 10.777 40.2455 10.777C39.8908 10.777 39.5828 10.8377 39.3215 10.959C39.0602 11.0803 38.8408 11.2553 38.6635 11.484C38.4908 11.7127 38.3602 11.995 38.2715 12.331C38.1875 12.6623 38.1455 13.038 38.1455 13.458C38.1455 13.878 38.1875 14.2537 38.2715 14.585C38.3602 14.9163 38.4908 15.1963 38.6635 15.425C38.8408 15.649 39.0602 15.8217 39.3215 15.943C39.5828 16.0643 39.8908 16.125 40.2455 16.125ZM50.1458 17C49.9685 17 49.8565 16.9137 49.8098 16.741L49.6978 15.88C49.3945 16.2487 49.0468 16.545 48.6548 16.769C48.2675 16.9883 47.8218 17.098 47.3178 17.098C46.9118 17.098 46.5431 17.021 46.2118 16.867C45.8805 16.7083 45.5981 16.4773 45.3648 16.174C45.1315 15.8707 44.9518 15.4927 44.8258 15.04C44.6998 14.5873 44.6368 14.067 44.6368 13.479C44.6368 12.9563 44.7068 12.471 44.8468 12.023C44.9868 11.5703 45.1875 11.1783 45.4488 10.847C45.7148 10.5157 46.0368 10.2567 46.4148 10.07C46.7928 9.87867 47.2221 9.783 47.7028 9.783C48.1368 9.783 48.5078 9.85767 48.8158 10.007C49.1238 10.1517 49.3991 10.357 49.6418 10.623V6.689H50.8878V17H50.1458ZM47.7308 16.09C48.1368 16.09 48.4915 15.9967 48.7948 15.81C49.1028 15.6233 49.3851 15.3597 49.6418 15.019V11.589C49.4131 11.281 49.1611 11.0663 48.8858 10.945C48.6151 10.819 48.3141 10.756 47.9828 10.756C47.3201 10.756 46.8115 10.9917 46.4568 11.463C46.1021 11.9343 45.9248 12.6063 45.9248 13.479C45.9248 13.941 45.9645 14.3377 46.0438 14.669C46.1231 14.9957 46.2398 15.2663 46.3938 15.481C46.5478 15.691 46.7368 15.845 46.9608 15.943C47.1848 16.041 47.4415 16.09 47.7308 16.09ZM57.8121 11.169C57.7748 11.2203 57.7375 11.26 57.7001 11.288C57.6628 11.316 57.6091 11.33 57.5391 11.33C57.4691 11.33 57.3921 11.302 57.3081 11.246C57.2288 11.1853 57.1261 11.12 57.0001 11.05C56.8741 10.98 56.7201 10.917 56.5381 10.861C56.3608 10.8003 56.1415 10.77 55.8801 10.77C55.5348 10.77 55.2291 10.833 54.9631 10.959C54.6971 11.0803 54.4731 11.2577 54.2911 11.491C54.1138 11.7243 53.9785 12.0067 53.8851 12.338C53.7965 12.6693 53.7521 13.0403 53.7521 13.451C53.7521 13.8803 53.8011 14.263 53.8991 14.599C53.9971 14.9303 54.1348 15.2103 54.3121 15.439C54.4895 15.663 54.7041 15.8357 54.9561 15.957C55.2128 16.0737 55.4998 16.132 55.8171 16.132C56.1205 16.132 56.3701 16.097 56.5661 16.027C56.7621 15.9523 56.9255 15.8707 57.0561 15.782C57.1868 15.6933 57.2941 15.614 57.3781 15.544C57.4621 15.4693 57.5461 15.432 57.6301 15.432C57.7375 15.432 57.8168 15.4717 57.8681 15.551L58.2181 16.006C57.9101 16.384 57.5251 16.6617 57.0631 16.839C56.6011 17.0117 56.1135 17.098 55.6001 17.098C55.1568 17.098 54.7438 17.0163 54.3611 16.853C53.9831 16.6897 53.6541 16.454 53.3741 16.146C53.0941 15.8333 52.8725 15.4507 52.7091 14.998C52.5505 14.5453 52.4711 14.0297 52.4711 13.451C52.4711 12.9237 52.5435 12.436 52.6881 11.988C52.8375 11.54 53.0521 11.155 53.3321 10.833C53.6168 10.5063 53.9668 10.252 54.3821 10.07C54.7975 9.888 55.2735 9.797 55.8101 9.797C56.3048 9.797 56.7435 9.87867 57.1261 10.042C57.5088 10.2007 57.8471 10.427 58.1411 10.721L57.8121 11.169ZM64.7183 17H64.1653C64.0439 17 63.9459 16.9813 63.8713 16.944C63.7966 16.9067 63.7476 16.8273 63.7243 16.706L63.5843 16.048C63.3976 16.216 63.2156 16.3677 63.0383 16.503C62.8609 16.6337 62.6743 16.7457 62.4783 16.839C62.2823 16.9277 62.0723 16.9953 61.8483 17.042C61.6289 17.0887 61.3839 17.112 61.1133 17.112C60.8379 17.112 60.5789 17.0747 60.3363 17C60.0983 16.9207 59.8906 16.804 59.7133 16.65C59.5359 16.496 59.3936 16.3023 59.2863 16.069C59.1836 15.831 59.1323 15.551 59.1323 15.229C59.1323 14.949 59.2093 14.6807 59.3633 14.424C59.5173 14.1627 59.7646 13.9317 60.1053 13.731C60.4506 13.5303 60.9009 13.367 61.4563 13.241C62.0116 13.1103 62.6906 13.0357 63.4933 13.017V12.464C63.4933 11.9133 63.3743 11.498 63.1363 11.218C62.9029 10.9333 62.5553 10.791 62.0933 10.791C61.7899 10.791 61.5333 10.8307 61.3233 10.91C61.1179 10.9847 60.9383 11.071 60.7843 11.169C60.6349 11.2623 60.5043 11.3487 60.3923 11.428C60.2849 11.5027 60.1776 11.54 60.0703 11.54C59.9863 11.54 59.9116 11.519 59.8463 11.477C59.7856 11.4303 59.7366 11.3743 59.6993 11.309L59.4753 10.91C59.8673 10.532 60.2896 10.2497 60.7423 10.063C61.1949 9.87633 61.6966 9.783 62.2473 9.783C62.6439 9.783 62.9963 9.84833 63.3043 9.979C63.6123 10.1097 63.8713 10.2917 64.0813 10.525C64.2913 10.7583 64.4499 11.0407 64.5573 11.372C64.6646 11.7033 64.7183 12.0673 64.7183 12.464V17ZM61.4843 16.237C61.7036 16.237 61.9043 16.216 62.0863 16.174C62.2683 16.1273 62.4386 16.0643 62.5973 15.985C62.7606 15.901 62.9146 15.8007 63.0593 15.684C63.2086 15.5673 63.3533 15.4343 63.4933 15.285V13.808C62.9193 13.8267 62.4316 13.8733 62.0303 13.948C61.6289 14.018 61.3023 14.1113 61.0503 14.228C60.7983 14.3447 60.6139 14.4823 60.4973 14.641C60.3853 14.7997 60.3293 14.977 60.3293 15.173C60.3293 15.3597 60.3596 15.5207 60.4203 15.656C60.4809 15.7913 60.5626 15.9033 60.6653 15.992C60.7679 16.076 60.8893 16.139 61.0293 16.181C61.1693 16.2183 61.3209 16.237 61.4843 16.237ZM70.666 11.078C70.61 11.1807 70.5237 11.232 70.407 11.232C70.337 11.232 70.2577 11.2063 70.169 11.155C70.0803 11.1037 69.9707 11.0477 69.84 10.987C69.714 10.9217 69.5623 10.8633 69.385 10.812C69.2077 10.756 68.9977 10.728 68.755 10.728C68.545 10.728 68.356 10.756 68.188 10.812C68.02 10.8633 67.8753 10.9357 67.754 11.029C67.6373 11.1223 67.5463 11.232 67.481 11.358C67.4203 11.4793 67.39 11.6123 67.39 11.757C67.39 11.939 67.4413 12.0907 67.544 12.212C67.6513 12.3333 67.7913 12.4383 67.964 12.527C68.1367 12.6157 68.3327 12.695 68.552 12.765C68.7713 12.8303 68.9953 12.9027 69.224 12.982C69.4573 13.0567 69.6837 13.1407 69.903 13.234C70.1223 13.3273 70.3183 13.444 70.491 13.584C70.6637 13.724 70.8013 13.8967 70.904 14.102C71.0113 14.3027 71.065 14.5453 71.065 14.83C71.065 15.1567 71.0067 15.46 70.89 15.74C70.7733 16.0153 70.6007 16.2557 70.372 16.461C70.1433 16.6617 69.8633 16.8203 69.532 16.937C69.2007 17.0537 68.818 17.112 68.384 17.112C67.8893 17.112 67.4413 17.0327 67.04 16.874C66.6387 16.7107 66.298 16.503 66.018 16.251L66.312 15.775C66.3493 15.7143 66.3937 15.6677 66.445 15.635C66.4963 15.6023 66.564 15.586 66.648 15.586C66.732 15.586 66.8207 15.6187 66.914 15.684C67.0073 15.7493 67.1193 15.8217 67.25 15.901C67.3853 15.9803 67.5463 16.0527 67.733 16.118C67.9243 16.1833 68.1623 16.216 68.447 16.216C68.6897 16.216 68.902 16.1857 69.084 16.125C69.266 16.0597 69.4177 15.9733 69.539 15.866C69.6603 15.7587 69.749 15.635 69.805 15.495C69.8657 15.355 69.896 15.2057 69.896 15.047C69.896 14.851 69.8423 14.69 69.735 14.564C69.6323 14.4333 69.4947 14.3237 69.322 14.235C69.1493 14.1417 68.951 14.0623 68.727 13.997C68.5077 13.927 68.2813 13.8547 68.048 13.78C67.8193 13.7053 67.593 13.6213 67.369 13.528C67.1497 13.43 66.9537 13.3087 66.781 13.164C66.6083 13.0193 66.4683 12.842 66.361 12.632C66.2583 12.4173 66.207 12.1583 66.207 11.855C66.207 11.5843 66.263 11.3253 66.375 11.078C66.487 10.826 66.6503 10.6067 66.865 10.42C67.0797 10.2287 67.3433 10.077 67.656 9.965C67.9687 9.853 68.3257 9.797 68.727 9.797C69.1937 9.797 69.6113 9.87167 69.98 10.021C70.3533 10.1657 70.6753 10.3663 70.946 10.623L70.666 11.078ZM74.8253 17.112C74.2653 17.112 73.8336 16.9557 73.5303 16.643C73.2316 16.3303 73.0823 15.88 73.0823 15.292V10.952H72.2283C72.1536 10.952 72.0906 10.931 72.0393 10.889C71.988 10.8423 71.9623 10.7723 71.9623 10.679V10.182L73.1243 10.035L73.4113 7.844C73.4206 7.774 73.451 7.718 73.5023 7.676C73.5536 7.62933 73.619 7.606 73.6983 7.606H74.3283V10.049H76.3583V10.952H74.3283V15.208C74.3283 15.5067 74.4006 15.7283 74.5453 15.873C74.69 16.0177 74.8766 16.09 75.1053 16.09C75.236 16.09 75.348 16.0737 75.4413 16.041C75.5393 16.0037 75.6233 15.964 75.6933 15.922C75.7633 15.88 75.8216 15.8427 75.8683 15.81C75.9196 15.7727 75.964 15.754 76.0013 15.754C76.0666 15.754 76.125 15.7937 76.1763 15.873L76.5403 16.468C76.3256 16.6687 76.0666 16.8273 75.7633 16.944C75.46 17.056 75.1473 17.112 74.8253 17.112Z" fill="#424551"/>
<defs>
<clipPath id="clip0_47201_1048">
<rect width="16" height="16" fill="white" transform="translate(8 3.5)"/>
</clipPath>
</defs>
</svg>
