<svg width="57" height="21" viewBox="0 0 57 21" fill="none" xmlns="http://www.w3.org/2000/svg">
<path fill-rule="evenodd" clip-rule="evenodd" d="M10.7117 9.441C11.4099 9.97466 11.4099 11.026 10.7117 11.5597L7.65841 13.8933C6.78101 14.5639 5.51541 13.9383 5.51541 12.834V8.16673C5.51541 7.06241 6.78101 6.43678 7.65841 7.10738L10.7117 9.441ZM9.90204 10.5004L6.84875 8.16673L6.84875 12.834L9.90204 10.5004Z" fill="#424551"/>
<path fill-rule="evenodd" clip-rule="evenodd" d="M7.99984 4.50033C4.68613 4.50033 1.99984 7.18662 1.99984 10.5003C1.99984 13.814 4.68613 16.5003 7.99984 16.5003C11.3135 16.5003 13.9998 13.814 13.9998 10.5003C13.9998 7.18662 11.3135 4.50033 7.99984 4.50033ZM0.666504 10.5003C0.666504 6.45024 3.94975 3.16699 7.99984 3.16699C12.0499 3.16699 15.3332 6.45024 15.3332 10.5003C15.3332 14.5504 12.0499 17.8337 7.99984 17.8337C3.94975 17.8337 0.666504 14.5504 0.666504 10.5003Z" fill="#424551"/>
<path d="M20.056 5.969H21.141C21.2623 5.969 21.3603 5.99933 21.435 6.06C21.5097 6.12067 21.5657 6.19767 21.603 6.291L24.438 13.368C24.5033 13.5267 24.5617 13.6993 24.613 13.886C24.669 14.0727 24.7227 14.2663 24.774 14.467C24.816 14.2663 24.8603 14.0727 24.907 13.886C24.9583 13.6993 25.0167 13.5267 25.082 13.368L27.903 6.291C27.9357 6.21167 27.9917 6.13933 28.071 6.074C28.1503 6.004 28.2483 5.969 28.365 5.969H29.457L25.369 16H24.144L20.056 5.969ZM31.9236 8.909V16H30.6776V8.909H31.9236ZM32.2036 6.683C32.2036 6.80433 32.178 6.91867 32.1266 7.026C32.08 7.12867 32.0146 7.222 31.9306 7.306C31.8513 7.38533 31.758 7.44833 31.6506 7.495C31.5433 7.54167 31.429 7.565 31.3076 7.565C31.1863 7.565 31.072 7.54167 30.9646 7.495C30.862 7.44833 30.7686 7.38533 30.6846 7.306C30.6053 7.222 30.5423 7.12867 30.4956 7.026C30.449 6.91867 30.4256 6.80433 30.4256 6.683C30.4256 6.56167 30.449 6.44733 30.4956 6.34C30.5423 6.228 30.6053 6.13233 30.6846 6.053C30.7686 5.969 30.862 5.90367 30.9646 5.857C31.072 5.81033 31.1863 5.787 31.3076 5.787C31.429 5.787 31.5433 5.81033 31.6506 5.857C31.758 5.90367 31.8513 5.969 31.9306 6.053C32.0146 6.13233 32.08 6.228 32.1266 6.34C32.178 6.44733 32.2036 6.56167 32.2036 6.683ZM39.1107 16C38.9333 16 38.8213 15.9137 38.7747 15.741L38.6627 14.88C38.3593 15.2487 38.0117 15.545 37.6197 15.769C37.2323 15.9883 36.7867 16.098 36.2827 16.098C35.8767 16.098 35.508 16.021 35.1767 15.867C34.8453 15.7083 34.563 15.4773 34.3297 15.174C34.0963 14.8707 33.9167 14.4927 33.7907 14.04C33.6647 13.5873 33.6017 13.067 33.6017 12.479C33.6017 11.9563 33.6717 11.471 33.8117 11.023C33.9517 10.5703 34.1523 10.1783 34.4137 9.847C34.6797 9.51567 35.0017 9.25667 35.3797 9.07C35.7577 8.87867 36.187 8.783 36.6677 8.783C37.1017 8.783 37.4727 8.85767 37.7807 9.007C38.0887 9.15167 38.364 9.357 38.6067 9.623V5.689H39.8527V16H39.1107ZM36.6957 15.09C37.1017 15.09 37.4563 14.9967 37.7597 14.81C38.0677 14.6233 38.35 14.3597 38.6067 14.019V10.589C38.378 10.281 38.126 10.0663 37.8507 9.945C37.58 9.819 37.279 9.756 36.9477 9.756C36.285 9.756 35.7763 9.99167 35.4217 10.463C35.067 10.9343 34.8897 11.6063 34.8897 12.479C34.8897 12.941 34.9293 13.3377 35.0087 13.669C35.088 13.9957 35.2047 14.2663 35.3587 14.481C35.5127 14.691 35.7017 14.845 35.9257 14.943C36.1497 15.041 36.4063 15.09 36.6957 15.09ZM44.747 8.797C45.1716 8.797 45.5636 8.86933 45.923 9.014C46.2823 9.154 46.5926 9.35933 46.854 9.63C47.1153 9.896 47.3183 10.2273 47.463 10.624C47.6123 11.016 47.687 11.464 47.687 11.968C47.687 12.164 47.666 12.2947 47.624 12.36C47.582 12.4253 47.5026 12.458 47.386 12.458H42.668C42.6773 12.906 42.738 13.2957 42.85 13.627C42.962 13.9583 43.116 14.236 43.312 14.46C43.508 14.6793 43.7413 14.845 44.012 14.957C44.2826 15.0643 44.586 15.118 44.922 15.118C45.2346 15.118 45.503 15.083 45.727 15.013C45.9556 14.9383 46.1516 14.859 46.315 14.775C46.4783 14.691 46.6136 14.614 46.721 14.544C46.833 14.4693 46.9286 14.432 47.008 14.432C47.1106 14.432 47.19 14.4717 47.246 14.551L47.596 15.006C47.442 15.1927 47.2576 15.356 47.043 15.496C46.8283 15.6313 46.5973 15.7433 46.35 15.832C46.1073 15.9207 45.8553 15.986 45.594 16.028C45.3326 16.0747 45.0736 16.098 44.817 16.098C44.327 16.098 43.8743 16.0163 43.459 15.853C43.0483 15.685 42.6913 15.4423 42.388 15.125C42.0893 14.803 41.856 14.4063 41.688 13.935C41.52 13.4637 41.436 12.9223 41.436 12.311C41.436 11.8163 41.5106 11.3543 41.66 10.925C41.814 10.4957 42.0333 10.1247 42.318 9.812C42.6026 9.49467 42.9503 9.24733 43.361 9.07C43.7716 8.888 44.2336 8.797 44.747 8.797ZM44.775 9.714C44.173 9.714 43.6993 9.889 43.354 10.239C43.0086 10.5843 42.794 11.065 42.71 11.681H46.567C46.567 11.3917 46.5273 11.128 46.448 10.89C46.3686 10.6473 46.252 10.4397 46.098 10.267C45.944 10.0897 45.755 9.95433 45.531 9.861C45.3116 9.763 45.0596 9.714 44.775 9.714ZM52.1518 8.797C52.6698 8.797 53.1364 8.88333 53.5518 9.056C53.9718 9.22867 54.3264 9.47367 54.6158 9.791C54.9098 10.1083 55.1338 10.4933 55.2878 10.946C55.4464 11.394 55.5258 11.8957 55.5258 12.451C55.5258 13.011 55.4464 13.515 55.2878 13.963C55.1338 14.411 54.9098 14.7937 54.6158 15.111C54.3264 15.4283 53.9718 15.6733 53.5518 15.846C53.1364 16.014 52.6698 16.098 52.1518 16.098C51.6338 16.098 51.1648 16.014 50.7448 15.846C50.3294 15.6733 49.9748 15.4283 49.6808 15.111C49.3868 14.7937 49.1604 14.411 49.0018 13.963C48.8431 13.515 48.7638 13.011 48.7638 12.451C48.7638 11.8957 48.8431 11.394 49.0018 10.946C49.1604 10.4933 49.3868 10.1083 49.6808 9.791C49.9748 9.47367 50.3294 9.22867 50.7448 9.056C51.1648 8.88333 51.6338 8.797 52.1518 8.797ZM52.1518 15.125C52.8518 15.125 53.3744 14.8917 53.7198 14.425C54.0651 13.9537 54.2378 13.298 54.2378 12.458C54.2378 11.6133 54.0651 10.9553 53.7198 10.484C53.3744 10.0127 52.8518 9.777 52.1518 9.777C51.7971 9.777 51.4891 9.83767 51.2278 9.959C50.9664 10.0803 50.7471 10.2553 50.5698 10.484C50.3971 10.7127 50.2664 10.995 50.1778 11.331C50.0938 11.6623 50.0518 12.038 50.0518 12.458C50.0518 12.878 50.0938 13.2537 50.1778 13.585C50.2664 13.9163 50.3971 14.1963 50.5698 14.425C50.7471 14.649 50.9664 14.8217 51.2278 14.943C51.4891 15.0643 51.7971 15.125 52.1518 15.125Z" fill="#424551"/>
</svg>
