<svg width="62" height="21" viewBox="0 0 62 21" fill="none" xmlns="http://www.w3.org/2000/svg">
<path fill-rule="evenodd" clip-rule="evenodd" d="M5.3335 11.4997C5.3335 11.1315 5.63197 10.833 6.00016 10.833H10.0002C10.3684 10.833 10.6668 11.1315 10.6668 11.4997C10.6668 11.8679 10.3684 12.1663 10.0002 12.1663H6.00016C5.63197 12.1663 5.3335 11.8679 5.3335 11.4997Z" fill="#424551"/>
<path fill-rule="evenodd" clip-rule="evenodd" d="M5.3335 13.9997C5.3335 13.6315 5.63197 13.333 6.00016 13.333H8.00016C8.36835 13.333 8.66683 13.6315 8.66683 13.9997C8.66683 14.3679 8.36835 14.6663 8.00016 14.6663H6.00016C5.63197 14.6663 5.3335 14.3679 5.3335 13.9997Z" fill="#424551"/>
<path fill-rule="evenodd" clip-rule="evenodd" d="M6.02877 3.52827C6.1538 3.40325 6.32337 3.33301 6.50018 3.33301H11.0002C12.4729 3.33301 13.6668 4.52692 13.6668 5.99967L13.6668 14.9997C13.6668 16.4724 12.4729 17.6663 11.0002 17.6663H5.00016C3.5274 17.6663 2.33349 16.4724 2.3335 14.9997L2.33351 7.49967C2.33351 7.32286 2.40375 7.15329 2.52877 7.02827L6.02877 3.52827ZM6.33349 5.10917V7.33301H4.10965L6.33349 5.10917ZM3.66684 8.66634L3.66683 14.9997C3.66683 15.7361 4.26378 16.333 5.00016 16.333H11.0002C11.7366 16.333 12.3335 15.7361 12.3335 14.9997L12.3335 5.99967C12.3335 5.26329 11.7366 4.66634 11.0002 4.66634H7.66682V7.99967C7.66682 8.36786 7.36835 8.66634 7.00016 8.66634H3.66684Z" fill="#424551"/>
<path d="M29.471 16H28.421C28.2997 16 28.2017 15.9697 28.127 15.909C28.0523 15.8483 27.9963 15.7713 27.959 15.678L27.021 13.256H22.52L21.582 15.678C21.5493 15.762 21.4933 15.8367 21.414 15.902C21.3347 15.9673 21.2367 16 21.12 16H20.07L24.081 5.969H25.46L29.471 16ZM22.898 12.276H26.643L25.068 8.195C24.9653 7.943 24.865 7.628 24.767 7.25C24.7157 7.44133 24.6643 7.61867 24.613 7.782C24.5663 7.94067 24.5197 8.08067 24.473 8.202L22.898 12.276ZM30.5376 16V8.909H31.2516C31.387 8.909 31.4803 8.93467 31.5316 8.986C31.583 9.03733 31.618 9.126 31.6366 9.252L31.7206 10.358C31.9633 9.86333 32.262 9.47833 32.6166 9.203C32.976 8.923 33.396 8.783 33.8766 8.783C34.0726 8.783 34.25 8.80633 34.4086 8.853C34.5673 8.895 34.7143 8.95567 34.8496 9.035L34.6886 9.966C34.656 10.0827 34.5836 10.141 34.4716 10.141C34.4063 10.141 34.306 10.12 34.1706 10.078C34.0353 10.0313 33.8463 10.008 33.6036 10.008C33.1696 10.008 32.8056 10.134 32.5116 10.386C32.2223 10.638 31.9796 11.0043 31.7836 11.485V16H30.5376ZM38.3331 16.112C37.7731 16.112 37.3414 15.9557 37.0381 15.643C36.7394 15.3303 36.5901 14.88 36.5901 14.292V9.952H35.7361C35.6614 9.952 35.5984 9.931 35.5471 9.889C35.4958 9.84233 35.4701 9.77233 35.4701 9.679V9.182L36.6321 9.035L36.9191 6.844C36.9284 6.774 36.9588 6.718 37.0101 6.676C37.0614 6.62933 37.1268 6.606 37.2061 6.606H37.8361V9.049H39.8661V9.952H37.8361V14.208C37.8361 14.5067 37.9084 14.7283 38.0531 14.873C38.1978 15.0177 38.3844 15.09 38.6131 15.09C38.7438 15.09 38.8558 15.0737 38.9491 15.041C39.0471 15.0037 39.1311 14.964 39.2011 14.922C39.2711 14.88 39.3294 14.8427 39.3761 14.81C39.4274 14.7727 39.4718 14.754 39.5091 14.754C39.5744 14.754 39.6328 14.7937 39.6841 14.873L40.0481 15.468C39.8334 15.6687 39.5744 15.8273 39.2711 15.944C38.9678 16.056 38.6551 16.112 38.3331 16.112ZM42.7928 8.909V16H41.5468V8.909H42.7928ZM43.0728 6.683C43.0728 6.80433 43.0471 6.91867 42.9958 7.026C42.9491 7.12867 42.8838 7.222 42.7998 7.306C42.7204 7.38533 42.6271 7.44833 42.5198 7.495C42.4124 7.54167 42.2981 7.565 42.1768 7.565C42.0554 7.565 41.9411 7.54167 41.8338 7.495C41.7311 7.44833 41.6378 7.38533 41.5538 7.306C41.4744 7.222 41.4114 7.12867 41.3648 7.026C41.3181 6.91867 41.2948 6.80433 41.2948 6.683C41.2948 6.56167 41.3181 6.44733 41.3648 6.34C41.4114 6.228 41.4744 6.13233 41.5538 6.053C41.6378 5.969 41.7311 5.90367 41.8338 5.857C41.9411 5.81033 42.0554 5.787 42.1768 5.787C42.2981 5.787 42.4124 5.81033 42.5198 5.857C42.6271 5.90367 42.7204 5.969 42.7998 6.053C42.8838 6.13233 42.9491 6.228 42.9958 6.34C43.0471 6.44733 43.0728 6.56167 43.0728 6.683ZM49.8258 10.169C49.7885 10.2203 49.7511 10.26 49.7138 10.288C49.6765 10.316 49.6228 10.33 49.5528 10.33C49.4828 10.33 49.4058 10.302 49.3218 10.246C49.2425 10.1853 49.1398 10.12 49.0138 10.05C48.8878 9.98 48.7338 9.917 48.5518 9.861C48.3745 9.80033 48.1551 9.77 47.8938 9.77C47.5485 9.77 47.2428 9.833 46.9768 9.959C46.7108 10.0803 46.4868 10.2577 46.3048 10.491C46.1275 10.7243 45.9921 11.0067 45.8988 11.338C45.8101 11.6693 45.7658 12.0403 45.7658 12.451C45.7658 12.8803 45.8148 13.263 45.9128 13.599C46.0108 13.9303 46.1485 14.2103 46.3258 14.439C46.5031 14.663 46.7178 14.8357 46.9698 14.957C47.2265 15.0737 47.5135 15.132 47.8308 15.132C48.1341 15.132 48.3838 15.097 48.5798 15.027C48.7758 14.9523 48.9391 14.8707 49.0698 14.782C49.2005 14.6933 49.3078 14.614 49.3918 14.544C49.4758 14.4693 49.5598 14.432 49.6438 14.432C49.7511 14.432 49.8305 14.4717 49.8818 14.551L50.2318 15.006C49.9238 15.384 49.5388 15.6617 49.0768 15.839C48.6148 16.0117 48.1271 16.098 47.6138 16.098C47.1705 16.098 46.7575 16.0163 46.3748 15.853C45.9968 15.6897 45.6678 15.454 45.3878 15.146C45.1078 14.8333 44.8861 14.4507 44.7228 13.998C44.5641 13.5453 44.4848 13.0297 44.4848 12.451C44.4848 11.9237 44.5571 11.436 44.7018 10.988C44.8511 10.54 45.0658 10.155 45.3458 9.833C45.6305 9.50633 45.9805 9.252 46.3958 9.07C46.8111 8.888 47.2871 8.797 47.8238 8.797C48.3185 8.797 48.7571 8.87867 49.1398 9.042C49.5225 9.20067 49.8608 9.427 50.1548 9.721L49.8258 10.169ZM52.91 5.689V16H51.664V5.689H52.91ZM57.913 8.797C58.3377 8.797 58.7297 8.86933 59.089 9.014C59.4483 9.154 59.7587 9.35933 60.02 9.63C60.2813 9.896 60.4843 10.2273 60.629 10.624C60.7783 11.016 60.853 11.464 60.853 11.968C60.853 12.164 60.832 12.2947 60.79 12.36C60.748 12.4253 60.6687 12.458 60.552 12.458H55.834C55.8433 12.906 55.904 13.2957 56.016 13.627C56.128 13.9583 56.282 14.236 56.478 14.46C56.674 14.6793 56.9073 14.845 57.178 14.957C57.4487 15.0643 57.752 15.118 58.088 15.118C58.4007 15.118 58.669 15.083 58.893 15.013C59.1217 14.9383 59.3177 14.859 59.481 14.775C59.6443 14.691 59.7797 14.614 59.887 14.544C59.999 14.4693 60.0947 14.432 60.174 14.432C60.2767 14.432 60.356 14.4717 60.412 14.551L60.762 15.006C60.608 15.1927 60.4237 15.356 60.209 15.496C59.9943 15.6313 59.7633 15.7433 59.516 15.832C59.2733 15.9207 59.0213 15.986 58.76 16.028C58.4987 16.0747 58.2397 16.098 57.983 16.098C57.493 16.098 57.0403 16.0163 56.625 15.853C56.2143 15.685 55.8573 15.4423 55.554 15.125C55.2553 14.803 55.022 14.4063 54.854 13.935C54.686 13.4637 54.602 12.9223 54.602 12.311C54.602 11.8163 54.6767 11.3543 54.826 10.925C54.98 10.4957 55.1993 10.1247 55.484 9.812C55.7687 9.49467 56.1163 9.24733 56.527 9.07C56.9377 8.888 57.3997 8.797 57.913 8.797ZM57.941 9.714C57.339 9.714 56.8653 9.889 56.52 10.239C56.1747 10.5843 55.96 11.065 55.876 11.681H59.733C59.733 11.3917 59.6933 11.128 59.614 10.89C59.5347 10.6473 59.418 10.4397 59.264 10.267C59.11 10.0897 58.921 9.95433 58.697 9.861C58.4777 9.763 58.2257 9.714 57.941 9.714Z" fill="#424551"/>
</svg>
